<?xml version="1.0" encoding="UTF-8"?>
<svg width="335px" height="201px" viewBox="0 0 335 201" version="1.1" xmlns="http://www.w3.org/2000/svg">
    <!-- Generator: Sketch 43.2 (39069) - http://www.bohemiancoding.com/sketch -->
    <title>hmrc</title>
    <desc>Created with Sketch.</desc>
    <defs></defs>
    <g id="Page-1" stroke="none" stroke-width="1" fill="none" fill-rule="evenodd">
        <g id="hmrc" fill-rule="nonzero">
            <polygon id="Shape" fill="#009390" points="0.002 199.99 4.722 199.99 4.722 0.955 0.003 0.955 0.003 199.99"></polygon>
            <path d="M28.3,100.824 L33.64,100.824 L33.64,118.084 L54.78,118.084 L54.78,100.824 L60.12,100.824 L60.12,140.964 L54.78,140.964 L54.78,122.58 L33.64,122.58 L33.64,140.963 L28.3,140.963 L28.3,100.823 L28.3,100.824 Z M67.517,100.824 L74.825,100.824 L87.473,134.554 L100.18,100.824 L107.488,100.824 L107.488,140.964 L102.428,140.964 L102.428,107.57 L102.316,107.57 L89.78,140.963 L85.226,140.963 L72.69,107.57 L72.576,107.57 L72.576,140.963 L67.516,140.963 L67.516,100.823 L67.517,100.824 Z M130.868,100.824 L149.756,100.824 C157.291,100.824 161.958,104.928 161.958,111.338 C161.958,116.17 159.82,120.163 154.985,121.512 L154.985,121.626 C159.652,122.524 160.609,125.952 161.001,129.889 C161.341,133.822 161.115,138.207 163.361,140.962 L157.404,140.962 C155.887,139.332 156.73,135.002 155.944,131.067 C155.381,127.133 154.424,123.815 149.252,123.815 L136.21,123.815 L136.21,140.962 L130.87,140.962 L130.87,100.822 L130.868,100.824 Z M147.338,119.32 C152.344,119.32 156.616,118.027 156.616,112.18 C156.616,108.245 154.48,105.32 149.476,105.32 L136.208,105.32 L136.208,119.32 L147.338,119.32 Z M191.947,131.73 C190.654,138.14 186.044,141.625 179.523,141.625 C170.247,141.625 165.861,135.217 165.58,126.333 C165.58,117.619 171.315,111.211 179.242,111.211 C189.53,111.211 192.677,120.826 192.396,127.853 L170.64,127.853 C170.47,132.913 173.34,137.408 179.69,137.408 C183.627,137.408 186.382,135.496 187.226,131.73 L191.946,131.73 L191.947,131.73 Z M187.337,123.634 C187.112,119.081 183.682,115.428 178.961,115.428 C173.957,115.428 170.978,119.195 170.641,123.634 L187.338,123.634 L187.337,123.634 Z M208.32,140.944 L203.205,140.944 L192.412,111.879 L197.752,111.879 L205.904,136.106 L206.017,136.106 L213.942,111.878 L218.946,111.878 L208.321,140.942 L208.32,140.944 Z M245.653,131.73 C244.361,138.14 239.751,141.625 233.229,141.625 C223.952,141.625 219.567,135.217 219.286,126.333 C219.286,117.619 225.02,111.211 232.946,111.211 C243.236,111.211 246.382,120.826 246.101,127.853 L224.347,127.853 C224.177,132.913 227.045,137.408 233.397,137.408 C237.333,137.408 240.087,135.496 240.929,131.73 L245.652,131.73 L245.653,131.73 Z M241.043,123.634 C240.819,119.081 237.388,115.428 232.667,115.428 C227.663,115.428 224.687,119.195 224.347,123.634 L241.043,123.634 Z M250.024,111.882 L254.521,111.882 L254.521,116.492 L254.635,116.492 C256.658,112.892 259.921,111.208 264.079,111.208 C271.725,111.208 274.086,115.594 274.086,121.831 L274.086,140.947 L269.308,140.947 L269.308,121.27 C269.308,117.73 267.058,115.423 263.406,115.423 C257.616,115.423 254.803,119.301 254.803,124.53 L254.803,140.946 L250.025,140.946 L250.025,111.882 L250.024,111.882 Z M303.754,140.944 L299.258,140.944 L299.258,136.334 L299.145,136.334 C297.122,139.934 293.859,141.617 289.7,141.617 C282.054,141.617 279.694,137.232 279.694,130.994 L279.694,111.88 L284.472,111.88 L284.472,131.554 C284.472,135.096 286.722,137.402 290.374,137.402 C296.164,137.402 298.977,133.522 298.977,128.294 L298.977,111.88 L303.754,111.88 L303.754,140.944 L303.754,140.944 Z M334.423,131.73 C333.131,138.14 328.521,141.625 322,141.625 C312.724,141.625 308.338,135.217 308.057,126.333 C308.057,117.619 313.792,111.211 321.719,111.211 C332.005,111.211 335.153,120.826 334.871,127.853 L313.117,127.853 C312.947,132.913 315.815,137.408 322.167,137.408 C326.103,137.408 328.857,135.496 329.702,131.73 L334.422,131.73 L334.423,131.73 Z M329.813,123.634 C329.589,119.081 326.161,115.428 321.438,115.428 C316.433,115.428 313.456,119.195 313.118,123.634 L329.814,123.634 L329.813,123.634 Z M49.664,195.005 C47.246,198.771 42.694,200.683 38.308,200.683 C27.458,200.683 25.771,192.983 25.771,189.723 C25.771,183.425 30.044,180.275 35.159,177.579 C32.912,174.372 30.719,172.236 30.719,168.132 C30.719,163.746 33.979,159.867 39.769,159.867 C44.774,159.867 49.497,162.622 49.497,168.077 C49.497,172.855 45.842,176.283 41.962,178.477 L49.217,187.301 C49.947,185.335 50.397,183.199 50.509,181.063 L55.062,181.063 C54.668,185.783 54.052,187.415 52.364,190.956 L60.178,200.008 L53.938,200.008 L49.666,195.003 L49.664,195.005 Z M37.802,180.613 C34.034,182.749 30.83,184.885 30.83,189.665 C30.83,193.712 34.596,196.468 38.476,196.468 C42.131,196.468 45.054,194.613 47.022,191.688 L37.802,180.613 Z M44.716,168.357 C44.716,166.054 42.974,164.085 40.106,164.085 C37.856,164.085 35.496,165.435 35.496,168.357 C35.496,170.774 37.632,173.135 39.376,175.33 C41.68,173.867 44.716,171.73 44.716,168.357 L44.716,168.357 Z M106.437,171.968 C105.312,166.292 100.759,163.424 95.192,163.424 C85.637,163.424 81.59,171.294 81.59,179.67 C81.59,188.833 85.637,196.48 95.25,196.48 C102.276,196.48 106.324,191.532 106.83,184.897 L112.17,184.897 C111.158,194.903 104.918,200.977 94.8,200.977 C82.32,200.977 76.247,191.757 76.247,180.065 C76.247,168.428 82.882,158.925 95.249,158.925 C103.624,158.925 110.539,163.425 111.776,171.968 L106.436,171.968 L106.437,171.968 Z M140.508,200.014 L136.012,200.014 L136.012,195.404 L135.899,195.404 C133.875,199.004 130.612,200.687 126.454,200.687 C118.808,200.687 116.447,196.302 116.447,190.064 L116.447,170.95 L121.225,170.95 L121.225,190.624 C121.225,194.166 123.475,196.472 127.127,196.472 C132.917,196.472 135.73,192.592 135.73,187.364 L135.73,170.95 L140.508,170.95 L140.508,200.014 L140.508,200.014 Z M149.464,190.846 C149.631,195.118 153.341,196.468 157.277,196.468 C160.257,196.468 164.304,195.794 164.304,192.138 C164.304,188.428 159.584,187.81 154.804,186.742 C150.084,185.674 145.304,184.098 145.304,178.534 C145.304,172.688 151.094,170.271 156.154,170.271 C162.564,170.271 167.678,172.295 168.071,179.378 L163.294,179.378 C162.956,175.668 159.694,174.488 156.548,174.488 C153.68,174.488 150.365,175.278 150.365,178.198 C150.365,181.625 155.423,182.19 159.865,183.256 C164.643,184.326 169.365,185.9 169.365,191.521 C169.365,198.437 162.899,200.686 156.997,200.686 C150.477,200.686 144.967,198.042 144.687,190.846 L149.465,190.846 L149.464,190.846 Z M180.038,170.952 L185.828,170.952 L185.828,175.169 L180.038,175.169 L180.038,193.213 C180.038,195.406 180.658,195.798 183.638,195.798 L185.828,195.798 L185.828,200.014 L182.174,200.014 C177.229,200.014 175.261,199.004 175.261,193.661 L175.261,175.17 L170.314,175.17 L170.314,170.952 L175.262,170.952 L175.262,162.238 L180.04,162.238 L180.04,170.952 L180.038,170.952 Z M201.256,170.266 C210.476,170.266 215.366,176.956 215.366,185.502 C215.366,193.989 210.476,200.68 201.256,200.68 C192.036,200.68 187.146,193.99 187.146,185.502 C187.146,176.956 192.036,170.266 201.256,170.266 L201.256,170.266 Z M201.256,196.463 C206.258,196.463 210.308,192.529 210.308,185.503 C210.308,178.418 206.258,174.483 201.256,174.483 C196.252,174.483 192.204,178.418 192.204,185.503 C192.204,192.529 196.252,196.463 201.256,196.463 L201.256,196.463 Z M219.686,170.952 L224.182,170.952 L224.182,175.224 L224.296,175.224 C226.432,171.964 229.692,170.278 233.683,170.278 C237.225,170.278 240.486,171.684 241.667,175.224 C243.635,172.131 247.064,170.278 250.773,170.278 C256.565,170.278 260.443,172.695 260.443,178.708 L260.443,200.016 L255.663,200.016 L255.663,180.958 C255.663,177.36 254.71,174.493 250.043,174.493 C245.433,174.493 242.453,177.419 242.453,181.915 L242.453,200.015 L237.676,200.015 L237.676,180.96 C237.676,177.194 236.496,174.495 232.223,174.495 C226.545,174.495 224.463,179.725 224.463,181.917 L224.463,200.017 L219.686,200.017 L219.686,170.954 L219.686,170.952 Z M269.352,190.846 C269.52,195.118 273.229,196.468 277.166,196.468 C280.146,196.468 284.193,195.794 284.193,192.138 C284.193,188.428 279.473,187.81 274.693,186.742 C269.971,185.674 265.191,184.098 265.191,178.534 C265.191,172.688 270.983,170.271 276.041,170.271 C282.451,170.271 287.568,172.295 287.961,179.378 L283.181,179.378 C282.845,175.668 279.584,174.488 276.437,174.488 C273.567,174.488 270.253,175.278 270.253,178.198 C270.253,181.625 275.313,182.19 279.753,183.256 C284.533,184.326 289.253,185.9 289.253,191.521 C289.253,198.437 282.788,200.686 276.886,200.686 C270.364,200.686 264.856,198.042 264.576,190.846 L269.353,190.846 L269.352,190.846 Z M87.676,44.825 C87.066,44.745 86.226,44.639 85.68,44.565 C86.24,43.353 86.578,42.655 86.578,42.655 C86.611,42.422 87.238,41.331 87.492,40.428 C87.722,39.693 87.852,38.338 87.852,38.115 C87.852,35.778 87.034,33.661 85.662,32.125 C84.29,30.592 82.379,29.642 80.198,29.642 C79.754,29.642 79.225,29.666 78.01,29.902 C76.767,30.209 76.177,30.382 75.078,30.672 C73.221,31.246 72.462,31.539 69.804,32.818 C69.537,32.945 69.428,33.182 69.374,33.358 C69.322,33.541 69.332,33.678 69.332,33.678 L69.222,43.561 L67.564,43.561 L67.564,32.767 C67.564,32.767 67.554,32.457 67.674,32.091 C67.789,31.725 68.064,31.373 68.521,31.068 C68.881,30.834 69.245,30.624 69.604,30.425 C69.207,30.158 68.938,29.709 68.938,29.192 C68.938,28.368 69.604,27.707 70.422,27.707 C71.242,27.707 71.912,28.367 71.912,29.193 C71.912,29.269 71.892,29.345 71.888,29.416 C71.916,29.404 71.948,29.392 71.98,29.383 C72.308,29.269 72.67,29.158 73.024,29.053 C72.571,28.799 72.264,28.317 72.264,27.767 C72.264,26.942 72.932,26.28 73.747,26.28 C74.567,26.28 75.233,26.942 75.233,27.767 C75.233,28.017 75.159,28.253 75.053,28.461 C75.773,28.263 76.281,28.128 76.281,28.128 L76.496,28.081 C76.094,27.811 75.832,27.363 75.832,26.847 C75.832,26.027 76.495,25.364 77.31,25.364 C78.137,25.364 78.794,26.029 78.794,26.848 C78.794,27.138 78.714,27.401 78.574,27.628 C78.582,27.623 78.596,27.623 78.604,27.618 C79.118,27.531 79.699,27.515 80.224,27.515 C80.046,27.27 79.94,26.975 79.94,26.653 C79.94,25.826 80.61,25.167 81.422,25.167 C82.244,25.167 82.902,25.827 82.902,26.653 C82.902,27.105 82.695,27.506 82.372,27.78 C82.927,27.917 83.462,28.1 83.976,28.34 C83.931,28.2 83.903,28.06 83.903,27.91 C83.903,27.088 84.57,26.424 85.39,26.424 C86.205,26.424 86.87,27.087 86.87,27.909 C86.87,28.632 86.356,29.225 85.673,29.359 C86.127,29.703 86.55,30.083 86.935,30.497 L86.935,30.449 C86.935,29.629 87.605,28.966 88.415,28.966 C89.235,28.966 89.898,29.629 89.898,30.449 C89.898,31.267 89.236,31.931 88.416,31.931 C88.268,31.931 88.14,31.905 88.008,31.865 C88.284,32.293 88.538,32.742 88.752,33.208 C89.022,32.818 89.465,32.563 89.98,32.563 C90.795,32.563 91.46,33.223 91.46,34.047 C91.46,34.864 90.795,35.527 89.98,35.527 C89.81,35.527 89.658,35.493 89.507,35.443 C89.595,35.853 89.665,36.265 89.713,36.691 C89.889,36.621 90.08,36.577 90.281,36.577 C91.103,36.577 91.761,37.237 91.761,38.061 C91.761,38.878 91.103,39.541 90.281,39.541 C90.051,39.541 89.837,39.486 89.645,39.391 C89.622,39.551 89.595,39.717 89.577,39.883 C89.529,40.053 89.492,40.206 89.451,40.348 C90.181,40.443 90.741,41.055 90.741,41.818 C90.741,42.633 90.081,43.298 89.261,43.298 C88.951,43.298 88.669,43.208 88.431,43.042 C88.231,43.517 87.968,44.129 87.679,44.83 L87.676,44.825 Z M65.726,43.668 C64.936,43.668 64.306,43.032 64.306,42.248 C64.306,41.458 64.936,40.823 65.726,40.823 L65.74,40.823 C66.532,40.823 67.16,41.458 67.16,42.248 C67.16,43.032 66.532,43.668 65.74,43.668 L65.726,43.668 Z M65.74,40.218 C66.494,40.218 67.096,39.611 67.096,38.858 C67.096,38.113 66.494,37.503 65.74,37.503 L65.726,37.503 C64.972,37.503 64.37,38.113 64.37,38.859 C64.37,39.609 64.972,40.217 65.726,40.217 L65.74,40.217 L65.74,40.218 Z M65.73,36.886 C65.008,36.882 64.438,36.306 64.438,35.592 C64.438,34.872 65.008,34.297 65.731,34.294 L65.741,34.294 C66.459,34.297 67.031,34.874 67.031,35.592 C67.031,36.305 66.459,36.882 65.741,36.886 L65.731,36.886 L65.73,36.886 Z M65.738,30.814 C66.411,30.812 66.958,30.268 66.958,29.594 C66.958,28.919 66.411,28.376 65.738,28.374 L65.728,28.374 C65.055,28.376 64.511,28.919 64.511,29.594 C64.511,30.268 65.056,30.812 65.729,30.814 L65.739,30.814 L65.738,30.814 Z M65.73,33.767 C65.05,33.765 64.502,33.212 64.502,32.534 C64.502,31.856 65.05,31.301 65.732,31.298 L65.74,31.298 C66.418,31.301 66.97,31.856 66.97,32.534 C66.97,33.212 66.418,33.764 65.74,33.767 L65.73,33.767 Z M70.024,14.18 C70,14.085 69.901,13.977 69.75,13.977 C69.573,13.977 69.487,14.1 69.46,14.182 C69.18,15.272 68.62,16.297 66.484,16.479 C66.579,15.545 66.824,14.839 67.244,14.339 C67.644,13.907 68.197,13.619 69.004,13.446 C69.036,13.444 69.126,13.426 69.18,13.368 C69.21,13.33 69.25,13.263 69.242,13.168 C69.242,13.068 69.194,13.008 69.159,12.973 C69.094,12.921 69.019,12.909 68.981,12.911 L62.484,12.911 C62.448,12.909 62.372,12.921 62.308,12.973 C62.272,13.008 62.225,13.067 62.225,13.169 C62.217,13.264 62.255,13.331 62.285,13.369 C62.34,13.425 62.432,13.444 62.463,13.446 C63.269,13.619 63.823,13.906 64.221,14.34 C64.641,14.84 64.887,15.546 64.981,16.48 C62.846,16.297 62.286,15.27 62.007,14.182 C61.977,14.1 61.893,13.977 61.717,13.977 C61.564,13.977 61.465,14.085 61.441,14.18 L61.434,14.2 L61.434,20.144 C61.434,20.252 61.527,20.404 61.739,20.396 C61.954,20.396 62.006,20.276 62.032,20.222 L62.039,20.192 C62.545,18.955 63.613,18.154 64.993,17.949 C64.91,18.923 64.657,19.653 64.213,20.171 C63.811,20.606 63.283,20.881 62.463,21.057 L62.439,21.062 C62.389,21.074 62.329,21.095 62.285,21.14 C62.255,21.176 62.215,21.242 62.225,21.35 C62.225,21.44 62.271,21.502 62.305,21.535 C62.37,21.585 62.439,21.595 62.5,21.601 L68.963,21.601 C69.025,21.595 69.093,21.586 69.157,21.536 C69.191,21.503 69.239,21.442 69.239,21.35 C69.246,21.242 69.209,21.176 69.177,21.14 C69.132,21.096 69.073,21.075 69.024,21.063 L69,21.058 C68.18,20.883 67.65,20.608 67.25,20.172 C66.805,19.654 66.552,18.924 66.47,17.949 C67.85,18.153 68.917,18.954 69.423,20.192 L69.43,20.222 C69.456,20.275 69.508,20.395 69.72,20.395 C69.936,20.402 70.028,20.251 70.028,20.143 L70.028,14.2 L70.022,14.18 L70.024,14.18 Z M65.74,28.168 C67.474,28.168 68.885,26.758 68.885,25.023 C68.885,23.288 67.475,21.878 65.74,21.878 L65.73,21.878 C63.996,21.878 62.583,23.286 62.583,25.023 C62.583,26.76 63.996,28.168 65.731,28.168 L65.741,28.168 L65.74,28.168 Z M43.043,43.03 C42.803,43.193 42.523,43.285 42.213,43.285 C41.391,43.285 40.733,42.621 40.733,41.805 C40.733,41.043 41.29,40.428 42.023,40.335 C41.983,40.195 41.943,40.038 41.897,39.871 C41.877,39.704 41.852,39.538 41.829,39.381 C41.636,39.471 41.421,39.531 41.192,39.531 C40.37,39.531 39.71,38.867 39.71,38.048 C39.71,37.225 40.37,36.566 41.193,36.566 C41.391,36.566 41.585,36.606 41.76,36.679 C41.807,36.254 41.878,35.839 41.966,35.432 C41.814,35.482 41.663,35.518 41.491,35.518 C40.679,35.518 40.013,34.852 40.013,34.036 C40.013,33.212 40.679,32.553 41.493,32.553 C42.009,32.553 42.451,32.809 42.723,33.199 C42.938,32.733 43.19,32.284 43.467,31.857 C43.335,31.894 43.207,31.92 43.057,31.92 C42.237,31.92 41.577,31.26 41.577,30.44 C41.577,29.62 42.237,28.955 43.057,28.955 C43.871,28.955 44.54,29.619 44.54,30.441 L44.54,30.486 C44.924,30.073 45.347,29.692 45.8,29.35 C45.118,29.215 44.6,28.624 44.6,27.9 C44.6,27.08 45.27,26.415 46.084,26.415 C46.904,26.415 47.572,27.079 47.572,27.901 C47.572,28.051 47.542,28.191 47.497,28.329 C48.01,28.089 48.547,27.909 49.099,27.769 C48.777,27.497 48.569,27.093 48.569,26.642 C48.569,25.816 49.229,25.155 50.052,25.155 C50.862,25.155 51.532,25.815 51.532,26.641 C51.532,26.964 51.425,27.257 51.248,27.501 C51.772,27.501 52.353,27.519 52.868,27.609 C52.875,27.613 52.888,27.613 52.896,27.619 C52.756,27.391 52.676,27.127 52.676,26.839 C52.676,26.019 53.333,25.355 54.158,25.355 C54.975,25.355 55.638,26.018 55.638,26.838 C55.638,27.353 55.378,27.8 54.975,28.072 C55.053,28.087 55.122,28.102 55.191,28.12 C55.191,28.12 55.699,28.255 56.419,28.453 C56.314,28.246 56.239,28.01 56.239,27.76 C56.239,26.935 56.907,26.273 57.724,26.273 C58.54,26.273 59.206,26.935 59.206,27.76 C59.206,28.31 58.901,28.792 58.45,29.043 C58.803,29.151 59.162,29.263 59.493,29.376 C59.526,29.383 59.557,29.396 59.585,29.409 C59.58,29.339 59.561,29.262 59.561,29.187 C59.561,28.362 60.231,27.7 61.051,27.7 C61.866,27.7 62.535,28.362 62.535,29.187 C62.535,29.702 62.265,30.153 61.865,30.42 C62.225,30.62 62.589,30.83 62.951,31.063 C63.409,31.368 63.685,31.72 63.799,32.083 C63.917,32.453 63.909,32.763 63.909,32.763 L63.909,43.557 L62.25,43.557 L62.14,33.671 C62.14,33.671 62.15,33.537 62.097,33.355 C62.042,33.177 61.934,32.939 61.667,32.815 C59.007,31.535 58.25,31.242 56.393,30.665 C55.293,30.377 54.703,30.205 53.458,29.898 C52.246,29.662 51.718,29.638 51.273,29.638 C49.093,29.638 47.18,30.588 45.805,32.121 C44.439,33.657 43.62,35.771 43.62,38.111 C43.62,38.333 43.75,39.689 43.98,40.424 C44.23,41.328 44.86,42.419 44.893,42.649 C44.893,42.649 45.231,43.349 45.791,44.562 C45.246,44.636 44.403,44.74 43.795,44.822 C43.505,44.122 43.245,43.509 43.045,43.034 L43.043,43.03 Z" id="Shape" fill="#000000"></path>
            <path d="M89,46.007 C88.853,45.799 88.617,45.662 88.32,45.615 C88.217,45.595 85.4,45.225 85.068,45.18 C84.968,45.173 84.848,45.24 84.815,45.414 C84.777,45.604 84.9,45.714 84.983,45.737 L84.961,45.727 C86.465,46.425 87.351,47.845 87.371,49.542 C85.041,49.06 84.457,47.864 84.311,46.212 C84.311,46.142 84.244,46.014 84.051,45.997 C83.881,45.983 83.791,46.067 83.757,46.144 L83.753,46.158 L82.863,53.301 L82.863,53.311 C82.863,53.411 82.93,53.533 83.083,53.569 C83.236,53.605 83.368,53.514 83.405,53.409 C84.112,51.899 85.515,50.999 87.183,50.955 C86.737,52.631 85.485,53.933 83.857,54.372 L83.864,54.378 C82.647,54.25 81.424,54.132 80.187,54.026 C79.007,53.671 78.139,53.038 77.822,51.566 C77.84,51.379 77.877,51.186 77.948,50.994 C78.248,50.186 78.832,49.652 79.484,49.888 C80.164,50.144 80.234,50.912 79.938,51.72 C79.813,52.058 79.621,52.332 79.406,52.535 C80.113,52.521 80.743,52.27 81.242,51.565 C82.069,50.389 81.972,48.575 80.68,47.828 C79.84,47.338 78.667,47.908 77.778,49.018 C78.048,47.271 79.108,45.73 79.228,44.383 C79.398,42.487 78.668,40.377 77.625,39.796 C76.542,40.193 75.555,42.151 75.46,44.044 C75.4,45.394 76.313,47.174 76.36,48.952 C75.63,47.684 74.515,46.928 73.603,47.308 C72.223,47.873 71.875,49.654 72.536,50.932 C72.946,51.698 73.526,52.032 74.226,52.142 C74.034,51.912 73.888,51.608 73.812,51.262 C73.629,50.417 73.794,49.672 74.508,49.515 C75.184,49.369 75.692,49.967 75.876,50.811 C75.936,51.081 75.946,51.341 75.906,51.586 L75.906,51.584 C75.37,52.854 74.402,53.294 73.194,53.594 C71.968,53.538 70.73,53.496 69.487,53.467 L69.355,53.442 C67.605,53.162 66.715,52.044 66.538,49.948 C68.076,50.18 69.272,51.081 69.832,52.458 C69.858,52.541 69.95,52.668 70.156,52.668 C70.394,52.668 70.479,52.512 70.479,52.406 L70.479,45.793 C70.446,45.686 70.347,45.58 70.179,45.58 C69.999,45.58 69.909,45.702 69.879,45.778 L69.879,45.782 L69.872,45.792 C69.565,47.009 68.934,48.157 66.534,48.352 C66.73,46.019 67.798,45.3 69.354,44.962 C69.397,44.962 69.474,44.944 69.534,44.877 C69.564,44.844 69.61,44.783 69.61,44.687 L69.61,44.667 C69.6,44.565 69.55,44.499 69.51,44.464 C69.45,44.41 69.374,44.394 69.336,44.394 L62.134,44.394 C62.099,44.394 62.021,44.41 61.959,44.464 C61.919,44.499 61.867,44.564 61.859,44.667 L61.859,44.687 C61.859,44.783 61.905,44.844 61.936,44.877 C61.996,44.944 62.073,44.962 62.116,44.962 C63.672,45.3 64.74,46.019 64.939,48.352 C62.536,48.157 61.905,47.009 61.599,45.792 L61.591,45.782 L61.591,45.778 C61.559,45.702 61.469,45.578 61.291,45.578 C61.121,45.578 61.023,45.685 60.991,45.792 L60.991,52.398 C60.991,52.504 61.077,52.66 61.311,52.66 C61.519,52.66 61.611,52.533 61.637,52.45 C62.197,51.073 63.395,50.172 64.927,49.94 C64.753,52.037 63.863,53.154 62.114,53.435 L61.982,53.461 C60.742,53.491 59.502,53.533 58.276,53.588 C57.068,53.29 56.099,52.848 55.566,51.578 L55.566,51.582 C55.526,51.339 55.536,51.079 55.596,50.808 C55.78,49.964 56.286,49.366 56.962,49.513 C57.678,49.67 57.842,50.416 57.662,51.26 C57.582,51.607 57.437,51.912 57.245,52.14 C57.945,52.03 58.525,51.697 58.937,50.93 C59.597,49.653 59.249,47.872 57.869,47.307 C56.955,46.927 55.842,47.683 55.109,48.951 C55.159,47.171 56.073,45.393 56.009,44.044 C55.919,42.152 54.929,40.194 53.845,39.797 C52.803,40.377 52.073,42.487 52.241,44.385 C52.361,45.733 53.421,47.275 53.688,49.02 C52.802,47.91 51.63,47.34 50.788,47.83 C49.498,48.578 49.4,50.392 50.228,51.57 C50.728,52.273 51.356,52.524 52.063,52.538 C51.85,52.335 51.659,52.061 51.533,51.723 C51.233,50.915 51.303,50.147 51.985,49.891 C52.639,49.655 53.221,50.189 53.518,50.997 C53.592,51.189 53.628,51.382 53.646,51.569 C53.329,53.041 52.462,53.674 51.281,54.029 C50.043,54.135 48.823,54.253 47.604,54.381 L47.611,54.376 C45.983,53.938 44.731,52.636 44.287,50.96 C45.953,51.003 47.357,51.903 48.065,53.415 C48.103,53.518 48.23,53.608 48.385,53.573 C48.54,53.537 48.608,53.413 48.608,53.315 L48.608,53.305 L47.718,46.163 L47.711,46.149 C47.681,46.073 47.588,45.989 47.418,46.002 C47.224,46.019 47.158,46.146 47.158,46.217 C47.011,47.869 46.428,49.065 44.095,49.547 C44.119,47.85 45.003,46.43 46.505,45.733 L46.485,45.743 C46.567,45.719 46.69,45.61 46.652,45.419 C46.62,45.246 46.502,45.179 46.4,45.185 C46.07,45.23 43.25,45.601 43.15,45.62 C42.85,45.667 42.615,45.804 42.468,46.012 C42.308,46.234 42.258,46.522 42.318,46.872 C42.4,47.352 43.381,54.244 43.475,54.877 C43.482,54.931 43.558,55.577 43.585,55.767 C43.612,55.969 43.867,56.169 43.867,56.169 C43.867,56.169 45.309,57.143 45.564,57.339 C45.807,57.526 45.668,57.852 45.668,57.852 L44.388,59.722 C44.288,59.846 44.233,59.972 44.233,59.972 C44.206,60.047 44.193,60.13 44.193,60.212 C44.193,60.439 44.296,60.638 44.468,60.765 L65.53,60.772 L66.048,60.772 L87.006,60.765 C87.176,60.638 87.282,60.439 87.282,60.212 C87.282,60.13 87.267,60.047 87.236,59.972 C87.236,59.972 87.184,59.846 87.08,59.722 L85.802,57.852 C85.802,57.852 85.662,57.526 85.909,57.339 C86.161,57.143 87.603,56.169 87.603,56.169 C87.603,56.169 87.859,55.969 87.89,55.769 C87.913,55.576 87.99,54.931 87.998,54.877 C88.09,54.244 89.071,47.351 89.154,46.872 C89.214,46.522 89.164,46.234 89.004,46.012 L89,46.007 Z M57.271,57.852 L52.574,58.1 C52.099,58.126 51.684,57.76 51.662,57.282 L51.622,56.614 C51.598,56.134 51.967,55.731 52.449,55.708 L57.141,55.453 C57.623,55.428 58.031,55.793 58.056,56.276 L58.093,56.938 C58.113,57.422 57.747,57.826 57.27,57.85 L57.271,57.852 Z M67.63,56.664 L65.958,58.338 C65.898,58.398 65.821,58.43 65.741,58.434 L65.734,58.434 C65.654,58.43 65.576,58.399 65.514,58.338 L63.84,56.66 C63.7,56.524 63.7,56.313 63.84,56.18 L65.513,54.506 C65.575,54.444 65.653,54.416 65.733,54.411 L65.741,54.411 C65.821,54.417 65.899,54.445 65.958,54.507 L67.631,56.18 C67.771,56.313 67.771,56.524 67.631,56.66 L67.63,56.664 Z M79.814,57.277 C79.794,57.755 79.377,58.121 78.9,58.095 L74.203,57.847 C73.727,57.823 73.358,57.419 73.38,56.935 L73.417,56.273 C73.441,55.791 73.85,55.425 74.334,55.449 L79.024,55.703 C79.51,55.726 79.876,56.13 79.852,56.608 L79.815,57.275 L79.814,57.277 Z" id="Shape" fill="#000000"></path>
            <path d="M65.733,0.972 C87.873,0.972 105.883,18.982 105.883,41.122 C105.883,63.262 87.873,81.274 65.733,81.274 C43.593,81.274 25.583,63.262 25.583,41.121 C25.583,18.981 43.593,0.973 65.733,0.973 M65.733,76.573 C85.278,76.573 101.18,60.669 101.18,41.123 C101.18,21.576 85.278,5.675 65.733,5.675 C46.188,5.675 30.286,21.575 30.286,41.122 C30.286,60.67 46.188,76.574 65.733,76.574" id="Shape" fill="#000000"></path>
        </g>
    </g>
</svg>