<?xml version="1.0" encoding="UTF-8"?>
<svg width="293px" height="201px" viewBox="0 0 293 201" version="1.1" xmlns="http://www.w3.org/2000/svg" xmlns:xlink="http://www.w3.org/1999/xlink">
    <g id="Page-1" stroke="none" stroke-width="1" fill="none" fill-rule="evenodd">
        <g id="hmrc">
            <polygon id="Shape" fill="#009390" fill-rule="nonzero" points="0.002 199.99 4.722 199.99 4.722 0.955 0.003 0.955 0.003 199.99"></polygon>
            <path d="M87.676,44.825 C87.066,44.745 86.226,44.639 85.68,44.565 C86.24,43.353 86.578,42.655 86.578,42.655 C86.611,42.422 87.238,41.331 87.492,40.428 C87.722,39.693 87.852,38.338 87.852,38.115 C87.852,35.778 87.034,33.661 85.662,32.125 C84.29,30.592 82.379,29.642 80.198,29.642 C79.754,29.642 79.225,29.666 78.01,29.902 C76.767,30.209 76.177,30.382 75.078,30.672 C73.221,31.246 72.462,31.539 69.804,32.818 C69.537,32.945 69.428,33.182 69.374,33.358 C69.322,33.541 69.332,33.678 69.332,33.678 L69.222,43.561 L67.564,43.561 L67.564,32.767 C67.564,32.767 67.554,32.457 67.674,32.091 C67.789,31.725 68.064,31.373 68.521,31.068 C68.881,30.834 69.245,30.624 69.604,30.425 C69.207,30.158 68.938,29.709 68.938,29.192 C68.938,28.368 69.604,27.707 70.422,27.707 C71.242,27.707 71.912,28.367 71.912,29.193 C71.912,29.269 71.892,29.345 71.888,29.416 C71.916,29.404 71.948,29.392 71.98,29.383 C72.308,29.269 72.67,29.158 73.024,29.053 C72.571,28.799 72.264,28.317 72.264,27.767 C72.264,26.942 72.932,26.28 73.747,26.28 C74.567,26.28 75.233,26.942 75.233,27.767 C75.233,28.017 75.159,28.253 75.053,28.461 C75.773,28.263 76.281,28.128 76.281,28.128 L76.496,28.081 C76.094,27.811 75.832,27.363 75.832,26.847 C75.832,26.027 76.495,25.364 77.31,25.364 C78.137,25.364 78.794,26.029 78.794,26.848 C78.794,27.138 78.714,27.401 78.574,27.628 C78.582,27.623 78.596,27.623 78.604,27.618 C79.118,27.531 79.699,27.515 80.224,27.515 C80.046,27.27 79.94,26.975 79.94,26.653 C79.94,25.826 80.61,25.167 81.422,25.167 C82.244,25.167 82.902,25.827 82.902,26.653 C82.902,27.105 82.695,27.506 82.372,27.78 C82.927,27.917 83.462,28.1 83.976,28.34 C83.931,28.2 83.903,28.06 83.903,27.91 C83.903,27.088 84.57,26.424 85.39,26.424 C86.205,26.424 86.87,27.087 86.87,27.909 C86.87,28.632 86.356,29.225 85.673,29.359 C86.127,29.703 86.55,30.083 86.935,30.497 L86.935,30.449 C86.935,29.629 87.605,28.966 88.415,28.966 C89.235,28.966 89.898,29.629 89.898,30.449 C89.898,31.267 89.236,31.931 88.416,31.931 C88.268,31.931 88.14,31.905 88.008,31.865 C88.284,32.293 88.538,32.742 88.752,33.208 C89.022,32.818 89.465,32.563 89.98,32.563 C90.795,32.563 91.46,33.223 91.46,34.047 C91.46,34.864 90.795,35.527 89.98,35.527 C89.81,35.527 89.658,35.493 89.507,35.443 C89.595,35.853 89.665,36.265 89.713,36.691 C89.889,36.621 90.08,36.577 90.281,36.577 C91.103,36.577 91.761,37.237 91.761,38.061 C91.761,38.878 91.103,39.541 90.281,39.541 C90.051,39.541 89.837,39.486 89.645,39.391 C89.622,39.551 89.595,39.717 89.577,39.883 C89.529,40.053 89.492,40.206 89.451,40.348 C90.181,40.443 90.741,41.055 90.741,41.818 C90.741,42.633 90.081,43.298 89.261,43.298 C88.951,43.298 88.669,43.208 88.431,43.042 C88.231,43.517 87.968,44.129 87.679,44.83 L87.676,44.825 Z M65.726,43.668 C64.936,43.668 64.306,43.032 64.306,42.248 C64.306,41.458 64.936,40.823 65.726,40.823 L65.74,40.823 C66.532,40.823 67.16,41.458 67.16,42.248 C67.16,43.032 66.532,43.668 65.74,43.668 L65.726,43.668 Z M65.74,40.218 C66.494,40.218 67.096,39.611 67.096,38.858 C67.096,38.113 66.494,37.503 65.74,37.503 L65.726,37.503 C64.972,37.503 64.37,38.113 64.37,38.859 C64.37,39.609 64.972,40.217 65.726,40.217 L65.74,40.217 L65.74,40.218 Z M65.73,36.886 C65.008,36.882 64.438,36.306 64.438,35.592 C64.438,34.872 65.008,34.297 65.731,34.294 L65.741,34.294 C66.459,34.297 67.031,34.874 67.031,35.592 C67.031,36.305 66.459,36.882 65.741,36.886 L65.731,36.886 L65.73,36.886 Z M65.738,30.814 C66.411,30.812 66.958,30.268 66.958,29.594 C66.958,28.919 66.411,28.376 65.738,28.374 L65.728,28.374 C65.055,28.376 64.511,28.919 64.511,29.594 C64.511,30.268 65.056,30.812 65.729,30.814 L65.739,30.814 L65.738,30.814 Z M65.73,33.767 C65.05,33.765 64.502,33.212 64.502,32.534 C64.502,31.856 65.05,31.301 65.732,31.298 L65.74,31.298 C66.418,31.301 66.97,31.856 66.97,32.534 C66.97,33.212 66.418,33.764 65.74,33.767 L65.73,33.767 Z M70.024,14.18 C70,14.085 69.901,13.977 69.75,13.977 C69.573,13.977 69.487,14.1 69.46,14.182 C69.18,15.272 68.62,16.297 66.484,16.479 C66.579,15.545 66.824,14.839 67.244,14.339 C67.644,13.907 68.197,13.619 69.004,13.446 C69.036,13.444 69.126,13.426 69.18,13.368 C69.21,13.33 69.25,13.263 69.242,13.168 C69.242,13.068 69.194,13.008 69.159,12.973 C69.094,12.921 69.019,12.909 68.981,12.911 L62.484,12.911 C62.448,12.909 62.372,12.921 62.308,12.973 C62.272,13.008 62.225,13.067 62.225,13.169 C62.217,13.264 62.255,13.331 62.285,13.369 C62.34,13.425 62.432,13.444 62.463,13.446 C63.269,13.619 63.823,13.906 64.221,14.34 C64.641,14.84 64.887,15.546 64.981,16.48 C62.846,16.297 62.286,15.27 62.007,14.182 C61.977,14.1 61.893,13.977 61.717,13.977 C61.564,13.977 61.465,14.085 61.441,14.18 L61.434,14.2 L61.434,20.144 C61.434,20.252 61.527,20.404 61.739,20.396 C61.954,20.396 62.006,20.276 62.032,20.222 L62.039,20.192 C62.545,18.955 63.613,18.154 64.993,17.949 C64.91,18.923 64.657,19.653 64.213,20.171 C63.811,20.606 63.283,20.881 62.463,21.057 L62.439,21.062 C62.389,21.074 62.329,21.095 62.285,21.14 C62.255,21.176 62.215,21.242 62.225,21.35 C62.225,21.44 62.271,21.502 62.305,21.535 C62.37,21.585 62.439,21.595 62.5,21.601 L68.963,21.601 C69.025,21.595 69.093,21.586 69.157,21.536 C69.191,21.503 69.239,21.442 69.239,21.35 C69.246,21.242 69.209,21.176 69.177,21.14 C69.132,21.096 69.073,21.075 69.024,21.063 L69,21.058 C68.18,20.883 67.65,20.608 67.25,20.172 C66.805,19.654 66.552,18.924 66.47,17.949 C67.85,18.153 68.917,18.954 69.423,20.192 L69.43,20.222 C69.456,20.275 69.508,20.395 69.72,20.395 C69.936,20.402 70.028,20.251 70.028,20.143 L70.028,14.2 L70.022,14.18 L70.024,14.18 Z M65.74,28.168 C67.474,28.168 68.885,26.758 68.885,25.023 C68.885,23.288 67.475,21.878 65.74,21.878 L65.73,21.878 C63.996,21.878 62.583,23.286 62.583,25.023 C62.583,26.76 63.996,28.168 65.731,28.168 L65.741,28.168 L65.74,28.168 Z M43.043,43.03 C42.803,43.193 42.523,43.285 42.213,43.285 C41.391,43.285 40.733,42.621 40.733,41.805 C40.733,41.043 41.29,40.428 42.023,40.335 C41.983,40.195 41.943,40.038 41.897,39.871 C41.877,39.704 41.852,39.538 41.829,39.381 C41.636,39.471 41.421,39.531 41.192,39.531 C40.37,39.531 39.71,38.867 39.71,38.048 C39.71,37.225 40.37,36.566 41.193,36.566 C41.391,36.566 41.585,36.606 41.76,36.679 C41.807,36.254 41.878,35.839 41.966,35.432 C41.814,35.482 41.663,35.518 41.491,35.518 C40.679,35.518 40.013,34.852 40.013,34.036 C40.013,33.212 40.679,32.553 41.493,32.553 C42.009,32.553 42.451,32.809 42.723,33.199 C42.938,32.733 43.19,32.284 43.467,31.857 C43.335,31.894 43.207,31.92 43.057,31.92 C42.237,31.92 41.577,31.26 41.577,30.44 C41.577,29.62 42.237,28.955 43.057,28.955 C43.871,28.955 44.54,29.619 44.54,30.441 L44.54,30.486 C44.924,30.073 45.347,29.692 45.8,29.35 C45.118,29.215 44.6,28.624 44.6,27.9 C44.6,27.08 45.27,26.415 46.084,26.415 C46.904,26.415 47.572,27.079 47.572,27.901 C47.572,28.051 47.542,28.191 47.497,28.329 C48.01,28.089 48.547,27.909 49.099,27.769 C48.777,27.497 48.569,27.093 48.569,26.642 C48.569,25.816 49.229,25.155 50.052,25.155 C50.862,25.155 51.532,25.815 51.532,26.641 C51.532,26.964 51.425,27.257 51.248,27.501 C51.772,27.501 52.353,27.519 52.868,27.609 C52.875,27.613 52.888,27.613 52.896,27.619 C52.756,27.391 52.676,27.127 52.676,26.839 C52.676,26.019 53.333,25.355 54.158,25.355 C54.975,25.355 55.638,26.018 55.638,26.838 C55.638,27.353 55.378,27.8 54.975,28.072 C55.053,28.087 55.122,28.102 55.191,28.12 C55.191,28.12 55.699,28.255 56.419,28.453 C56.314,28.246 56.239,28.01 56.239,27.76 C56.239,26.935 56.907,26.273 57.724,26.273 C58.54,26.273 59.206,26.935 59.206,27.76 C59.206,28.31 58.901,28.792 58.45,29.043 C58.803,29.151 59.162,29.263 59.493,29.376 C59.526,29.383 59.557,29.396 59.585,29.409 C59.58,29.339 59.561,29.262 59.561,29.187 C59.561,28.362 60.231,27.7 61.051,27.7 C61.866,27.7 62.535,28.362 62.535,29.187 C62.535,29.702 62.265,30.153 61.865,30.42 C62.225,30.62 62.589,30.83 62.951,31.063 C63.409,31.368 63.685,31.72 63.799,32.083 C63.917,32.453 63.909,32.763 63.909,32.763 L63.909,43.557 L62.25,43.557 L62.14,33.671 C62.14,33.671 62.15,33.537 62.097,33.355 C62.042,33.177 61.934,32.939 61.667,32.815 C59.007,31.535 58.25,31.242 56.393,30.665 C55.293,30.377 54.703,30.205 53.458,29.898 C52.246,29.662 51.718,29.638 51.273,29.638 C49.093,29.638 47.18,30.588 45.805,32.121 C44.439,33.657 43.62,35.771 43.62,38.111 C43.62,38.333 43.75,39.689 43.98,40.424 C44.23,41.328 44.86,42.419 44.893,42.649 C44.893,42.649 45.231,43.349 45.791,44.562 C45.246,44.636 44.403,44.74 43.795,44.822 C43.505,44.122 43.245,43.509 43.045,43.034 L43.043,43.03 Z" id="Shape" fill="#000000" fill-rule="nonzero"></path>
            <path d="M89,46.007 C88.853,45.799 88.617,45.662 88.32,45.615 C88.217,45.595 85.4,45.225 85.068,45.18 C84.968,45.173 84.848,45.24 84.815,45.414 C84.777,45.604 84.9,45.714 84.983,45.737 L84.961,45.727 C86.465,46.425 87.351,47.845 87.371,49.542 C85.041,49.06 84.457,47.864 84.311,46.212 C84.311,46.142 84.244,46.014 84.051,45.997 C83.881,45.983 83.791,46.067 83.757,46.144 L83.753,46.158 L82.863,53.301 L82.863,53.311 C82.863,53.411 82.93,53.533 83.083,53.569 C83.236,53.605 83.368,53.514 83.405,53.409 C84.112,51.899 85.515,50.999 87.183,50.955 C86.737,52.631 85.485,53.933 83.857,54.372 L83.864,54.378 C82.647,54.25 81.424,54.132 80.187,54.026 C79.007,53.671 78.139,53.038 77.822,51.566 C77.84,51.379 77.877,51.186 77.948,50.994 C78.248,50.186 78.832,49.652 79.484,49.888 C80.164,50.144 80.234,50.912 79.938,51.72 C79.813,52.058 79.621,52.332 79.406,52.535 C80.113,52.521 80.743,52.27 81.242,51.565 C82.069,50.389 81.972,48.575 80.68,47.828 C79.84,47.338 78.667,47.908 77.778,49.018 C78.048,47.271 79.108,45.73 79.228,44.383 C79.398,42.487 78.668,40.377 77.625,39.796 C76.542,40.193 75.555,42.151 75.46,44.044 C75.4,45.394 76.313,47.174 76.36,48.952 C75.63,47.684 74.515,46.928 73.603,47.308 C72.223,47.873 71.875,49.654 72.536,50.932 C72.946,51.698 73.526,52.032 74.226,52.142 C74.034,51.912 73.888,51.608 73.812,51.262 C73.629,50.417 73.794,49.672 74.508,49.515 C75.184,49.369 75.692,49.967 75.876,50.811 C75.936,51.081 75.946,51.341 75.906,51.586 L75.906,51.584 C75.37,52.854 74.402,53.294 73.194,53.594 C71.968,53.538 70.73,53.496 69.487,53.467 L69.355,53.442 C67.605,53.162 66.715,52.044 66.538,49.948 C68.076,50.18 69.272,51.081 69.832,52.458 C69.858,52.541 69.95,52.668 70.156,52.668 C70.394,52.668 70.479,52.512 70.479,52.406 L70.479,45.793 C70.446,45.686 70.347,45.58 70.179,45.58 C69.999,45.58 69.909,45.702 69.879,45.778 L69.879,45.782 L69.872,45.792 C69.565,47.009 68.934,48.157 66.534,48.352 C66.73,46.019 67.798,45.3 69.354,44.962 C69.397,44.962 69.474,44.944 69.534,44.877 C69.564,44.844 69.61,44.783 69.61,44.687 L69.61,44.667 C69.6,44.565 69.55,44.499 69.51,44.464 C69.45,44.41 69.374,44.394 69.336,44.394 L62.134,44.394 C62.099,44.394 62.021,44.41 61.959,44.464 C61.919,44.499 61.867,44.564 61.859,44.667 L61.859,44.687 C61.859,44.783 61.905,44.844 61.936,44.877 C61.996,44.944 62.073,44.962 62.116,44.962 C63.672,45.3 64.74,46.019 64.939,48.352 C62.536,48.157 61.905,47.009 61.599,45.792 L61.591,45.782 L61.591,45.778 C61.559,45.702 61.469,45.578 61.291,45.578 C61.121,45.578 61.023,45.685 60.991,45.792 L60.991,52.398 C60.991,52.504 61.077,52.66 61.311,52.66 C61.519,52.66 61.611,52.533 61.637,52.45 C62.197,51.073 63.395,50.172 64.927,49.94 C64.753,52.037 63.863,53.154 62.114,53.435 L61.982,53.461 C60.742,53.491 59.502,53.533 58.276,53.588 C57.068,53.29 56.099,52.848 55.566,51.578 L55.566,51.582 C55.526,51.339 55.536,51.079 55.596,50.808 C55.78,49.964 56.286,49.366 56.962,49.513 C57.678,49.67 57.842,50.416 57.662,51.26 C57.582,51.607 57.437,51.912 57.245,52.14 C57.945,52.03 58.525,51.697 58.937,50.93 C59.597,49.653 59.249,47.872 57.869,47.307 C56.955,46.927 55.842,47.683 55.109,48.951 C55.159,47.171 56.073,45.393 56.009,44.044 C55.919,42.152 54.929,40.194 53.845,39.797 C52.803,40.377 52.073,42.487 52.241,44.385 C52.361,45.733 53.421,47.275 53.688,49.02 C52.802,47.91 51.63,47.34 50.788,47.83 C49.498,48.578 49.4,50.392 50.228,51.57 C50.728,52.273 51.356,52.524 52.063,52.538 C51.85,52.335 51.659,52.061 51.533,51.723 C51.233,50.915 51.303,50.147 51.985,49.891 C52.639,49.655 53.221,50.189 53.518,50.997 C53.592,51.189 53.628,51.382 53.646,51.569 C53.329,53.041 52.462,53.674 51.281,54.029 C50.043,54.135 48.823,54.253 47.604,54.381 L47.611,54.376 C45.983,53.938 44.731,52.636 44.287,50.96 C45.953,51.003 47.357,51.903 48.065,53.415 C48.103,53.518 48.23,53.608 48.385,53.573 C48.54,53.537 48.608,53.413 48.608,53.315 L48.608,53.305 L47.718,46.163 L47.711,46.149 C47.681,46.073 47.588,45.989 47.418,46.002 C47.224,46.019 47.158,46.146 47.158,46.217 C47.011,47.869 46.428,49.065 44.095,49.547 C44.119,47.85 45.003,46.43 46.505,45.733 L46.485,45.743 C46.567,45.719 46.69,45.61 46.652,45.419 C46.62,45.246 46.502,45.179 46.4,45.185 C46.07,45.23 43.25,45.601 43.15,45.62 C42.85,45.667 42.615,45.804 42.468,46.012 C42.308,46.234 42.258,46.522 42.318,46.872 C42.4,47.352 43.381,54.244 43.475,54.877 C43.482,54.931 43.558,55.577 43.585,55.767 C43.612,55.969 43.867,56.169 43.867,56.169 C43.867,56.169 45.309,57.143 45.564,57.339 C45.807,57.526 45.668,57.852 45.668,57.852 L44.388,59.722 C44.288,59.846 44.233,59.972 44.233,59.972 C44.206,60.047 44.193,60.13 44.193,60.212 C44.193,60.439 44.296,60.638 44.468,60.765 L65.53,60.772 L66.048,60.772 L87.006,60.765 C87.176,60.638 87.282,60.439 87.282,60.212 C87.282,60.13 87.267,60.047 87.236,59.972 C87.236,59.972 87.184,59.846 87.08,59.722 L85.802,57.852 C85.802,57.852 85.662,57.526 85.909,57.339 C86.161,57.143 87.603,56.169 87.603,56.169 C87.603,56.169 87.859,55.969 87.89,55.769 C87.913,55.576 87.99,54.931 87.998,54.877 C88.09,54.244 89.071,47.351 89.154,46.872 C89.214,46.522 89.164,46.234 89.004,46.012 L89,46.007 Z M57.271,57.852 L52.574,58.1 C52.099,58.126 51.684,57.76 51.662,57.282 L51.622,56.614 C51.598,56.134 51.967,55.731 52.449,55.708 L57.141,55.453 C57.623,55.428 58.031,55.793 58.056,56.276 L58.093,56.938 C58.113,57.422 57.747,57.826 57.27,57.85 L57.271,57.852 Z M67.63,56.664 L65.958,58.338 C65.898,58.398 65.821,58.43 65.741,58.434 L65.734,58.434 C65.654,58.43 65.576,58.399 65.514,58.338 L63.84,56.66 C63.7,56.524 63.7,56.313 63.84,56.18 L65.513,54.506 C65.575,54.444 65.653,54.416 65.733,54.411 L65.741,54.411 C65.821,54.417 65.899,54.445 65.958,54.507 L67.631,56.18 C67.771,56.313 67.771,56.524 67.631,56.66 L67.63,56.664 Z M79.814,57.277 C79.794,57.755 79.377,58.121 78.9,58.095 L74.203,57.847 C73.727,57.823 73.358,57.419 73.38,56.935 L73.417,56.273 C73.441,55.791 73.85,55.425 74.334,55.449 L79.024,55.703 C79.51,55.726 79.876,56.13 79.852,56.608 L79.815,57.275 L79.814,57.277 Z" id="Shape" fill="#000000" fill-rule="nonzero"></path>
            <path d="M65.733,0.972 C87.873,0.972 105.883,18.982 105.883,41.122 C105.883,63.262 87.873,81.274 65.733,81.274 C43.593,81.274 25.583,63.262 25.583,41.121 C25.583,18.981 43.593,0.973 65.733,0.973 M65.733,76.573 C85.278,76.573 101.18,60.669 101.18,41.123 C101.18,21.576 85.278,5.675 65.733,5.675 C46.188,5.675 30.286,21.575 30.286,41.122 C30.286,60.67 46.188,76.574 65.733,76.574" id="Shape" fill="#000000" fill-rule="nonzero"></path>
            <path d="M45.5698242,99.0014648 C50.7466079,99.0014648 54.7636576,100.365221 57.6210938,103.092773 C60.4785299,105.820326 62.0649398,108.918928 62.3803711,112.388672 L56.980957,112.388672 C56.3686493,109.753893 55.1486908,107.666512 53.3210449,106.126465 C51.4933991,104.586418 48.9282392,103.816406 45.6254883,103.816406 C41.599101,103.816406 38.3474245,105.231187 35.8703613,108.060791 C33.3932982,110.890395 32.1547852,115.22751 32.1547852,121.072266 C32.1547852,125.859399 33.2726939,129.741928 35.5085449,132.719971 C37.7443959,135.698013 41.0795677,137.187012 45.5141602,137.187012 C49.5962118,137.187012 52.7040909,135.619156 54.8378906,132.483398 C55.9697322,130.832023 56.8139621,128.661146 57.3706055,125.970703 L62.7700195,125.970703 C62.2875952,130.275412 60.6919081,133.884263 57.9829102,136.797363 C54.7358236,140.304217 50.3569611,142.057617 44.8461914,142.057617 C40.0961677,142.057617 36.1069497,140.619643 32.878418,137.743652 C28.6293733,133.939922 26.5048828,128.067423 26.5048828,120.125977 C26.5048828,114.095673 28.10057,109.150898 31.2919922,105.291504 C34.7431813,101.098124 39.5024111,99.0014648 45.5698242,99.0014648 Z M85.7170312,111.191895 L91.2556055,111.191895 C90.5505238,113.103037 88.9826684,117.463345 86.5519922,124.272949 C84.7336237,129.394069 83.2121546,133.568832 81.9875391,136.797363 C79.0929933,144.404823 77.0519981,149.043449 75.8644922,150.713379 C74.6769862,152.383309 72.635991,153.218262 69.7414453,153.218262 C69.0363637,153.218262 68.4936445,153.19043 68.1132715,153.134766 C67.7328985,153.079101 67.2643973,152.977052 66.7077539,152.828613 L66.7077539,148.26416 C67.5798286,148.505372 68.2106816,148.653808 68.600332,148.709473 C68.9899824,148.765137 69.3332407,148.792969 69.6301172,148.792969 C70.5578562,148.792969 71.2397341,148.639894 71.6757715,148.33374 C72.1118088,148.027586 72.4782602,147.651858 72.7751367,147.206543 C72.8679106,147.058105 73.2018916,146.29737 73.7770898,144.924316 C74.352288,143.551263 74.7697643,142.530765 75.0295312,141.862793 L64.0080469,111.191895 L69.6857812,111.191895 L77.6735742,135.461426 L85.7170312,111.191895 Z M93.9965625,100.114746 L99.0063281,100.114746 L99.0063281,141 L93.9965625,141 L93.9965625,100.114746 Z M104.920137,100.114746 L109.929902,100.114746 L109.929902,141 L104.920137,141 L104.920137,100.114746 Z M115.704551,111.331055 L120.797812,111.331055 L120.797812,141 L115.704551,141 L115.704551,111.331055 Z M115.704551,100.114746 L120.797812,100.114746 L120.797812,105.79248 L115.704551,105.79248 L115.704551,100.114746 Z M129.800977,126.443848 C129.800977,129.63527 130.478216,132.307118 131.832715,134.459473 C133.187214,136.611827 135.35809,137.687988 138.34541,137.687988 C140.664758,137.687988 142.571233,136.690684 144.064893,134.696045 C145.558552,132.701406 146.305371,129.839374 146.305371,126.109863 C146.305371,122.343243 145.535359,119.555429 143.995312,117.746338 C142.455266,115.937247 140.553429,115.032715 138.289746,115.032715 C135.766296,115.032715 133.720662,115.997549 132.152783,117.927246 C130.584904,119.856943 129.800977,122.695782 129.800977,126.443848 Z M137.343457,110.663086 C139.625695,110.663086 141.536809,111.145503 143.076855,112.110352 C143.967485,112.666995 144.978705,113.641106 146.110547,115.032715 L146.110547,99.9755859 L150.925488,99.9755859 L150.925488,141 L146.416699,141 L146.416699,136.853027 C145.247748,138.689951 143.865438,140.016597 142.269727,140.833008 C140.674015,141.649418 138.846397,142.057617 136.786816,142.057617 C133.465511,142.057617 130.589563,140.661391 128.158887,137.868896 C125.72821,135.076402 124.512891,131.360863 124.512891,126.722168 C124.512891,122.380349 125.621522,118.618424 127.838818,115.436279 C130.056115,112.254134 133.224296,110.663086 137.343457,110.663086 Z M183.293144,116.006836 C185.055849,114.763666 186.271168,113.752445 186.939141,112.973145 C188.033873,111.711419 188.58123,110.310555 188.58123,108.770508 C188.58123,107.564447 188.182309,106.525395 187.384453,105.65332 C186.586598,104.781246 185.510436,104.345215 184.155937,104.345215 C182.096357,104.345215 180.66766,105.031731 179.869805,106.404785 C179.461599,107.109867 179.2575,107.879879 179.2575,108.714844 C179.2575,109.846685 179.568288,110.932124 180.189873,111.971191 C180.811458,113.010259 181.845872,114.35546 183.293144,116.006836 Z M182.012871,137.548828 C184.072452,137.548828 185.844407,137.075688 187.328789,136.129395 C188.813171,135.183101 189.954273,134.125494 190.752129,132.956543 L181.511894,121.68457 C178.89567,123.42872 177.188656,124.764644 176.390801,125.692383 C175.166185,127.083991 174.553887,128.781728 174.553887,130.785645 C174.553887,132.956554 175.347092,134.626459 176.933525,135.79541 C178.519959,136.964361 180.213057,137.548828 182.012871,137.548828 Z M178.728691,118.26123 C177.003097,116.275869 175.848079,114.605964 175.263603,113.251465 C174.679128,111.896966 174.386894,110.588873 174.386894,109.327148 C174.386894,106.69237 175.277511,104.507577 177.058769,102.772705 C178.840028,101.037833 181.224282,100.17041 184.211601,100.17041 C187.050483,100.17041 189.267746,100.977531 190.863457,102.591797 C192.459168,104.206063 193.257012,106.135731 193.257012,108.380859 C193.257012,110.997083 192.431336,113.288564 190.779961,115.255371 C189.815112,116.405767 188.200871,117.732414 185.937187,119.235352 L193.396172,128.141602 C193.897151,126.657219 194.245048,125.548588 194.439873,124.815674 C194.634698,124.08276 194.834159,123.057624 195.038262,121.740234 L199.797539,121.740234 C199.482108,124.356458 198.851255,126.865955 197.904961,129.268799 C196.958667,131.671643 196.485527,132.641116 196.485527,132.177246 L203.749687,141 L197.292656,141 L193.451836,136.324219 C191.930344,137.975594 190.538756,139.181637 189.277031,139.942383 C187.069012,141.278327 184.527046,141.946289 181.651055,141.946289 C177.40201,141.946289 174.312685,140.800549 172.382988,138.509033 C170.453291,136.217518 169.488457,133.633803 169.488457,130.757812 C169.488457,127.659164 170.425459,125.070811 172.299492,122.992676 C173.449888,121.730951 175.592933,120.153818 178.728691,118.26123 Z" id="Cyllid-&amp;" fill="#000000"></path>
            <path d="M58.0942383,158.114746 L58.0942383,162.985352 L44.3173828,162.985352 L44.3173828,199 L38.6953125,199 L38.6953125,162.985352 L24.918457,162.985352 L24.918457,158.114746 L58.0942383,158.114746 Z M60.7516992,157.975586 L65.7614648,157.975586 L65.7614648,173.227539 C66.9489708,171.724602 68.0158546,170.666995 68.9621484,170.054688 C70.5764143,168.997065 72.5895778,168.468262 75.0016992,168.468262 C79.324963,168.468262 82.2565743,169.980454 83.7966211,173.004883 C84.6315862,174.656258 85.0490625,176.947739 85.0490625,179.879395 L85.0490625,199 L79.9001367,199 L79.9001367,180.213379 C79.9001367,178.023915 79.6218192,176.41895 79.0651758,175.398438 C78.1559915,173.765617 76.4489774,172.949219 73.944082,172.949219 C71.8659466,172.949219 69.9826647,173.663567 68.2941797,175.092285 C66.6056947,176.521003 65.7614648,179.220683 65.7614648,183.191406 L65.7614648,199 L60.7516992,199 L60.7516992,157.975586 Z M102.540996,195.771484 C105.862302,195.771484 108.139867,194.514417 109.37376,192.000244 C110.607653,189.486071 111.22459,186.68898 111.22459,183.608887 C111.22459,180.82567 110.779282,178.56202 109.888652,176.817871 C108.478489,174.071764 106.047849,172.69873 102.59666,172.69873 C99.5351214,172.69873 97.3085812,173.867664 95.9169726,176.205566 C94.5253641,178.543469 93.8295703,181.363753 93.8295703,184.666504 C93.8295703,187.839371 94.5253641,190.483388 95.9169726,192.598633 C97.3085812,194.713878 99.5165669,195.771484 102.540996,195.771484 Z M102.73582,168.329102 C106.57666,168.329102 109.823698,169.609362 112.477031,172.169922 C115.130365,174.730482 116.457012,178.497045 116.457012,183.469727 C116.457012,188.275415 115.288078,192.246078 112.950176,195.381836 C110.612273,198.517594 106.984868,200.085449 102.067852,200.085449 C97.9672451,200.085449 94.71093,198.6985 92.2988086,195.924561 C89.8866871,193.150621 88.6806445,189.425805 88.6806445,184.75 C88.6806445,179.740209 89.9516279,175.750991 92.4936328,172.782227 C95.0356377,169.813462 98.4496661,168.329102 102.73582,168.329102 Z M120.812227,158.114746 L125.821992,158.114746 L125.821992,199 L120.812227,199 L120.812227,158.114746 Z M131.735801,158.114746 L136.745566,158.114746 L136.745566,199 L131.735801,199 L131.735801,158.114746 Z M146.361035,191.067871 C146.361035,192.515144 146.889838,193.656246 147.947461,194.491211 C149.005083,195.326176 150.257512,195.743652 151.704785,195.743652 C153.467489,195.743652 155.174503,195.335453 156.825879,194.519043 C159.609096,193.164544 161.000684,190.947281 161.000684,187.867188 L161.000684,183.831543 C160.388376,184.221193 159.599809,184.545897 158.634961,184.805664 C157.670112,185.065431 156.723833,185.250976 155.796094,185.362305 L152.762402,185.751953 C150.944034,185.993165 149.580278,186.373533 148.671094,186.893066 C147.131047,187.765141 146.361035,189.156729 146.361035,191.067871 Z M158.495801,180.937012 C159.646197,180.788573 160.416209,180.306156 160.805859,179.489746 C161.028517,179.044431 161.139844,178.404301 161.139844,177.569336 C161.139844,175.862296 160.532184,174.623783 159.316846,173.85376 C158.101508,173.083736 156.362023,172.69873 154.09834,172.69873 C151.482116,172.69873 149.626666,173.403802 148.531934,174.813965 C147.919626,175.593266 147.520704,176.752922 147.335156,178.292969 L142.659375,178.292969 C142.752149,174.619122 143.944276,172.06324 146.235791,170.625244 C148.527306,169.187249 151.185239,168.468262 154.209668,168.468262 C157.716521,168.468262 160.564637,169.136224 162.754102,170.472168 C164.925011,171.808112 166.010449,173.886216 166.010449,176.706543 L166.010449,193.878906 C166.010449,194.39844 166.117138,194.815916 166.330518,195.131348 C166.543898,195.446779 166.993844,195.604492 167.680371,195.604492 C167.903028,195.604492 168.153514,195.590576 168.431836,195.562744 C168.710158,195.534912 169.00703,195.493164 169.322461,195.4375 L169.322461,199.13916 C168.54316,199.361818 167.949416,199.500976 167.541211,199.556641 C167.133006,199.612305 166.576371,199.640137 165.871289,199.640137 C164.145694,199.640137 162.893266,199.027838 162.113965,197.803223 C161.70576,197.153805 161.418165,196.235357 161.251172,195.047852 C160.230659,196.383796 158.764853,197.543452 156.853711,198.526855 C154.942569,199.510259 152.836633,200.001953 150.53584,200.001953 C147.771178,200.001953 145.512167,199.162362 143.75874,197.483154 C142.005313,195.803947 141.128613,193.702649 141.128613,191.179199 C141.128613,188.414537 141.991398,186.271492 143.716992,184.75 C145.442587,183.228508 147.706236,182.291506 150.508008,181.938965 L158.495801,180.937012 Z M177.490664,169.191895 L177.490664,188.980469 C177.490664,190.501961 177.731873,191.745112 178.214297,192.709961 C179.104926,194.49122 180.765554,195.381836 183.19623,195.381836 C186.684529,195.381836 189.059505,193.823258 190.32123,190.706055 C191.007757,189.036124 191.351016,186.744643 191.351016,183.831543 L191.351016,169.191895 L196.360781,169.191895 L196.360781,199 L191.629336,199 L191.685,194.602539 C191.035583,195.734381 190.228462,196.689938 189.263613,197.469238 C187.352471,199.02784 185.033158,199.807129 182.305605,199.807129 C178.056561,199.807129 175.162058,198.38771 173.622012,195.548828 C172.787047,194.027336 172.36957,191.995618 172.36957,189.453613 L172.36957,169.191895 L177.490664,169.191895 Z M217.734785,158.114746 L247.542891,158.114746 L247.542891,163.124512 L223.134199,163.124512 L223.134199,175.537598 L245.705976,175.537598 L245.705976,180.269043 L223.134199,180.269043 L223.134199,194.129395 L247.960371,194.129395 L247.960371,199 L217.734785,199 L217.734785,158.114746 Z M253.345371,158.114746 L261.2775,158.114746 L273.022617,192.682129 L284.684238,158.114746 L292.532871,158.114746 L292.532871,199 L287.272617,199 L287.272617,174.869629 C287.272617,174.034664 287.291172,172.652353 287.328281,170.722656 C287.365391,168.792959 287.383945,166.724132 287.383945,164.516113 L275.722324,199 L270.239414,199 L258.494297,164.516113 L258.494297,165.768555 C258.494297,166.770513 258.51749,168.296621 258.563877,170.346924 C258.610264,172.397227 258.633457,173.90478 258.633457,174.869629 L258.633457,199 L253.345371,199 L253.345371,158.114746 Z" id="Thollau-EM" fill="#000000"></path>
        </g>
    </g>
</svg>